<svg width="16" height="10" viewBox="0 0 16 10" fill="none" xmlns="http://www.w3.org/2000/svg">
<path d="M7.95131 0.499999C8.08204 0.512683 8.20938 0.556576 8.32593 0.62913L15.8184 8.37694C15.9239 8.48895 15.9886 8.64654 15.9986 8.81567C16.0087 8.98479 15.9631 9.15189 15.8719 9.28085C15.779 9.40815 15.6484 9.48628 15.5082 9.49836C15.368 9.51044 15.2295 9.4555 15.1226 9.34542L7.95131 1.985L0.833505 9.34542C0.725091 9.43324 0.593802 9.47021 0.464365 9.44936C0.334928 9.42852 0.216273 9.3513 0.130749 9.23224C0.0452252 9.11319 -0.00126834 8.96052 2.67638e-05 8.80299C0.00132091 8.64545 0.050315 8.49392 0.137779 8.37694L7.6302 0.62913C7.72401 0.548035 7.83593 0.503024 7.95131 0.499999Z" fill="white"/>
</svg>
