<svg width="40" height="41" viewBox="0 0 40 41" fill="none" xmlns="http://www.w3.org/2000/svg">
<circle cx="20" cy="20.5" r="19.5" stroke="#262624"/>
<g clip-path="url(#clip0_1399:99407)">
<path d="M19.9979 11.7422C19.8714 11.7422 19.7408 11.7461 19.6143 11.7538C16.6962 11.9318 14.3045 14.2419 14.1739 17.0125C14.1149 18.1597 14.4344 19.2959 15.0881 20.2629C15.0906 20.2648 15.0926 20.2671 15.0941 20.2698C15.0955 20.2725 15.0962 20.2754 15.0963 20.2784C15.1351 20.3311 15.1692 20.3868 15.1983 20.4448L18.1981 26.2336C18.3621 26.5535 18.6181 26.8231 18.9364 27.0113C19.2548 27.1996 19.6227 27.2988 19.9979 27.2977C20.3733 27.2996 20.7415 27.2007 21.0601 27.0124C21.3786 26.824 21.6344 26.554 21.7978 26.2336L24.7975 20.4448C24.8068 20.4247 24.8177 20.4053 24.8301 20.3867L25.2587 19.6631C25.2913 19.6051 25.3199 19.5548 25.3444 19.5006C25.67 18.801 25.8369 18.0442 25.8341 17.2795C25.8341 14.2226 23.214 11.7422 19.9979 11.7422ZM24.5975 19.1833C24.5837 19.2167 24.5674 19.249 24.5485 19.2801L24.12 20.0037C24.0996 20.0346 24.0833 20.0656 24.0669 20.0965L21.0672 25.8854C20.9703 26.0751 20.819 26.2351 20.6306 26.3471C20.4422 26.459 20.2243 26.5184 20.002 26.5184C19.7796 26.5184 19.5618 26.459 19.3734 26.3471C19.185 26.2351 19.0337 26.0751 18.9368 25.8854L15.9289 20.0965C15.8809 20.0054 15.8263 19.9175 15.7656 19.8334C15.2073 19.0022 14.9336 18.0278 14.982 17.0435C15.0963 14.6598 17.1533 12.6747 19.6592 12.5238C19.7694 12.5161 19.8836 12.5122 19.9938 12.5122C21.3246 12.514 22.6004 13.016 23.5415 13.9082C24.4825 14.8004 25.012 16.01 25.0138 17.2718C25.0181 17.9296 24.8763 18.5809 24.5975 19.1833Z" fill="#262624"/>
<path d="M19.9976 14.6445C19.437 14.6441 18.8889 14.8014 18.4225 15.0964C17.9562 15.3913 17.5926 15.8108 17.3777 16.3017C17.1628 16.7926 17.1062 17.3329 17.2152 17.8543C17.3242 18.3757 17.5938 18.8547 17.9899 19.2308C18.386 19.6069 18.8909 19.8632 19.4406 19.9673C19.9904 20.0714 20.5603 20.0186 21.0784 19.8155C21.5965 19.6125 22.0394 19.2683 22.3512 18.8266C22.663 18.3849 22.8296 17.8654 22.83 17.3339C22.8303 16.9809 22.7573 16.6314 22.6152 16.3052C22.473 15.9791 22.2644 15.6826 22.0014 15.4329C21.7384 15.1832 21.426 14.985 21.0822 14.8497C20.7384 14.7145 20.3699 14.6447 19.9976 14.6445ZM19.9976 19.2454C19.5989 19.2454 19.2091 19.1333 18.8775 18.9233C18.546 18.7132 18.2875 18.4147 18.1349 18.0654C17.9823 17.7161 17.9424 17.3317 18.0202 16.9609C18.098 16.5901 18.29 16.2495 18.572 15.9822C18.854 15.7149 19.2132 15.5328 19.6043 15.459C19.9954 15.3853 20.4008 15.4231 20.7692 15.5678C21.1376 15.7125 21.4525 15.9575 21.674 16.2719C21.8955 16.5862 22.0138 16.9558 22.0138 17.3339C22.0133 17.8407 21.8008 18.3267 21.4228 18.6851C21.0448 19.0435 20.5322 19.245 19.9976 19.2454Z" fill="#262624"/>
</g>
<defs>
<clipPath id="clip0_1399:99407">
<rect width="11.6667" height="15.5556" fill="white" transform="translate(14.167 11.7422)"/>
</clipPath>
</defs>
</svg>
