<svg width="88" height="59" viewBox="0 0 88 59" fill="none" xmlns="http://www.w3.org/2000/svg">
<g clip-path="url(#clip0_1788_107402)">
<path d="M34.5433 58.4996H2.39109C2.06608 58.5003 1.74637 58.4181 1.46281 58.261C1.17926 58.1038 0.941419 57.8771 0.772246 57.6025C0.603073 57.328 0.508273 57.015 0.49699 56.6936C0.485707 56.3723 0.558323 56.0535 0.707831 55.768L29.0774 1.50997C29.2279 1.22125 29.4518 0.976257 29.727 0.799108C30.0023 0.621958 30.3194 0.518753 30.6472 0.499648C30.9711 0.481285 31.2943 0.545642 31.5857 0.686535C31.8772 0.827427 32.1271 1.04012 32.3115 1.30416L48.6146 24.5977L59.3383 3.39965C59.4954 3.0911 59.7359 2.83163 60.033 2.64999C60.3301 2.46836 60.6723 2.37166 61.0215 2.37062C61.3801 2.37329 61.7304 2.47672 62.0318 2.66885C62.3332 2.86098 62.5731 3.13389 62.7237 3.45578L87.3107 55.8429C87.457 56.1387 87.5218 56.4674 87.4986 56.796C87.4753 57.1245 87.3648 57.4411 87.1783 57.7138C87.0006 57.9608 86.7648 58.1614 86.4914 58.2983C86.2179 58.4352 85.9149 58.5043 85.6085 58.4996H34.5433ZM37.6072 54.7577H82.6391L61.0215 8.54481L37.6072 54.7577ZM5.45501 54.7577H33.3707L46.7611 28.2648C46.5529 28.1323 46.3729 27.9607 46.2315 27.7596L30.9876 6.00029L5.45501 54.7577Z" fill="#262624"/>
<path d="M44 27.0678C42.9539 27.0341 41.9314 26.7512 41.0193 26.2431C40.1073 25.7349 39.3326 25.0166 38.7611 24.1491C37.7776 22.9891 37.3616 22.5775 36.4348 22.5775C35.5081 22.5775 35.0731 22.9891 34.0896 24.1491C33.5223 25.0163 32.7512 25.7347 31.8421 26.243C30.9331 26.7512 29.9132 27.0343 28.8696 27.0678C27.8234 27.0341 26.8009 26.7512 25.8889 26.2431C24.9768 25.7349 24.2022 25.0166 23.6307 24.1491C22.6472 22.9891 22.2311 22.5775 21.3044 22.5775C20.8028 22.5775 20.3217 22.3804 19.967 22.0295C19.6123 21.6786 19.4131 21.2028 19.4131 20.7065C19.4131 20.2103 19.6123 19.7344 19.967 19.3836C20.3217 19.0327 20.8028 18.8356 21.3044 18.8356C22.3506 18.8693 23.3731 19.1522 24.2851 19.6603C25.1972 20.1685 25.9718 20.8868 26.5433 21.7543C27.5079 22.9143 27.9429 23.3259 28.8696 23.3259C29.7963 23.3259 30.2124 22.9143 31.1959 21.7543C31.7674 20.8868 32.5421 20.1685 33.4541 19.6603C34.3661 19.1522 35.3886 18.8693 36.4348 18.8356C37.481 18.8693 38.5035 19.1522 39.4156 19.6603C40.3276 20.1685 41.1022 20.8868 41.6737 21.7543C42.6572 22.9143 43.0733 23.3259 44 23.3259C44.5016 23.3259 44.9827 23.523 45.3374 23.8739C45.6921 24.2248 45.8913 24.7007 45.8913 25.1969C45.8913 25.6931 45.6921 26.169 45.3374 26.5198C44.9827 26.8707 44.5016 27.0678 44 27.0678Z" fill="#262624"/>
<path d="M76.1522 40.7258C74.9144 40.6808 73.7058 40.341 72.6291 39.7351C71.5524 39.1293 70.6394 38.2754 69.9677 37.2458C68.7951 35.8426 68.0764 35.1129 66.6957 35.1129C65.3151 35.1129 64.5964 35.8426 63.4238 37.2458C62.7879 38.3085 61.8831 39.189 60.7987 39.8006C59.7143 40.4122 58.4875 40.7338 57.2392 40.7338C55.9909 40.7338 54.7641 40.4122 53.6797 39.8006C52.5952 39.189 51.6905 38.3085 51.0546 37.2458C49.882 35.8426 49.1633 35.1129 47.7827 35.1129C47.2811 35.1129 46.8 34.9158 46.4453 34.5649C46.0906 34.2141 45.8914 33.7382 45.8914 33.242C45.8914 32.7458 46.0906 32.2699 46.4453 31.919C46.8 31.5681 47.2811 31.371 47.7827 31.371C49.0191 31.4222 50.2254 31.7646 51.3011 32.3699C52.3768 32.9752 53.2908 33.8258 53.9672 34.851C55.1398 36.2542 55.8585 36.9839 57.2392 36.9839C58.6198 36.9839 59.3385 36.2542 60.5111 34.851C61.147 33.7884 62.0517 32.9079 63.1362 32.2963C64.2206 31.6847 65.4474 31.363 66.6957 31.363C67.944 31.363 69.1708 31.6847 70.2552 32.2963C71.3397 32.9079 72.2444 33.7884 72.8803 34.851C74.0529 36.2542 74.7716 36.9839 76.1522 36.9839C76.6538 36.9839 77.1349 37.181 77.4896 37.5319C77.8443 37.8828 78.0435 38.3587 78.0435 38.8549C78.0435 39.3511 77.8443 39.827 77.4896 40.1778C77.1349 40.5287 76.6538 40.7258 76.1522 40.7258Z" fill="#262624"/>
</g>
<defs>
<clipPath id="clip0_1788_107402">
<rect width="87" height="58" fill="white" transform="translate(0.5 0.5)"/>
</clipPath>
</defs>
</svg>
