<svg width="46" height="72" viewBox="0 0 46 72" fill="none" xmlns="http://www.w3.org/2000/svg">
<path d="M35.443 0H10.557C7.75836 0.00400961 5.0755 1.10482 3.09655 3.06112C1.11761 5.01742 0.00405601 7.66959 0 10.4362V61.5638C0.00405601 64.3304 1.11761 66.9826 3.09655 68.9389C5.0755 70.8952 7.75836 71.996 10.557 72H35.443C38.2416 71.996 40.9245 70.8952 42.9034 68.9389C44.8824 66.9826 45.9959 64.3304 46 61.5638V10.4362C45.9959 7.66959 44.8824 5.01742 42.9034 3.06112C40.9245 1.10482 38.2416 0.00400961 35.443 0ZM42.1667 61.5638C42.1626 63.3254 41.4529 65.0137 40.1929 66.2593C38.9328 67.505 37.225 68.2065 35.443 68.2105H10.557C8.77502 68.2065 7.06718 67.505 5.80712 66.2593C4.54707 65.0137 3.83738 63.3254 3.83333 61.5638V10.4362C3.83738 8.67462 4.54707 6.98632 5.80712 5.74068C7.06718 4.49504 8.77502 3.79348 10.557 3.78947H35.443C37.225 3.79348 38.9328 4.49504 40.1929 5.74068C41.4529 6.98632 42.1626 8.67462 42.1667 10.4362V61.5638Z" fill="black"/>
<path d="M30.2832 59.4948H15.7165C15.2082 59.4948 14.7207 59.6944 14.3612 60.0497C14.0018 60.405 13.7999 60.887 13.7999 61.3895C13.7999 61.892 14.0018 62.3739 14.3612 62.7293C14.7207 63.0846 15.2082 63.2842 15.7165 63.2842H30.2832C30.7915 63.2842 31.279 63.0846 31.6385 62.7293C31.9979 62.3739 32.1999 61.892 32.1999 61.3895C32.1999 60.887 31.9979 60.405 31.6385 60.0497C31.279 59.6944 30.7915 59.4948 30.2832 59.4948Z" fill="black"/>
</svg>
