<svg width="70" height="68" viewBox="0 0 70 68" fill="none" xmlns="http://www.w3.org/2000/svg">
<path d="M33.4089 67.5C27.4522 67.511 21.601 65.9249 16.4612 62.9059C11.3214 59.887 7.08004 55.545 4.17643 50.3298C1.27283 45.1146 -0.18742 39.2158 -0.0530508 33.2444C0.0813181 27.273 1.80542 21.4463 4.94065 16.3677C8.07589 11.2891 12.5082 7.14338 17.7786 4.35996C23.0489 1.57654 28.9656 0.256653 34.9157 0.53701C40.8658 0.817368 46.633 2.68778 51.6198 5.9545C56.6066 9.22122 60.6317 13.7654 63.2782 19.1165L65.3225 12.56C65.5103 11.9518 65.9313 11.4434 66.493 11.1464C67.0546 10.8495 67.7109 10.7885 68.3174 10.9768C68.924 11.165 69.4311 11.5872 69.7272 12.1504C70.0233 12.7135 70.0842 13.3716 69.8964 13.9798L65.9191 26.7417C65.7539 27.288 65.3993 27.7571 64.9194 28.0643C64.4395 28.3715 63.8659 28.4964 63.3021 28.4167C63.1585 28.3852 63.0175 28.3425 62.8805 28.2891L48.5623 23.5034C48.2573 23.4238 47.9709 23.2847 47.7195 23.0941C47.468 22.9035 47.2565 22.6651 47.097 22.3926C46.9374 22.12 46.833 21.8186 46.7896 21.5056C46.7462 21.1925 46.7647 20.874 46.8441 20.5681C46.9235 20.2623 47.0622 19.9751 47.2523 19.723C47.4424 19.4709 47.6801 19.2588 47.9519 19.0988C48.2237 18.9388 48.5243 18.8341 48.8365 18.7906C49.1487 18.7471 49.4664 18.7657 49.7714 18.8453C49.8691 18.8699 49.9648 18.9019 50.0578 18.941L59.3805 22.0517C57.1415 17.0309 53.4936 12.7722 48.8818 9.79502C44.27 6.81786 38.8937 5.25105 33.4089 5.28574C25.8141 5.28574 18.5303 8.31099 13.1599 13.696C7.78957 19.0809 4.77254 26.3845 4.77254 34C4.77254 41.6155 7.78957 48.9191 13.1599 54.3041C18.5303 59.6891 25.8141 62.7143 33.4089 62.7143C38.6949 62.7347 43.8858 61.3052 48.4201 58.5807C52.9543 55.8561 56.6592 51.9401 59.1339 47.2565C59.3849 46.6726 59.857 46.2127 60.4463 45.9778C61.0355 45.743 61.6937 45.7525 62.2759 46.0042C62.8582 46.2559 63.3169 46.7293 63.5511 47.3201C63.7853 47.911 63.7759 48.5709 63.5248 49.1548C63.4771 49.2677 63.4213 49.377 63.3578 49.4818C60.4827 54.9412 56.1714 59.5067 50.8918 62.6831C45.6122 65.8595 39.5659 67.5254 33.4089 67.5Z" fill="#262624"/>
</svg>
