<svg width="64" height="72" viewBox="0 0 64 72" fill="none" xmlns="http://www.w3.org/2000/svg">
<g clip-path="url(#clip0_1788_107398)">
<path d="M62.5234 51.3283L55.297 47.1694L59.6487 46.0024C60.1511 45.8686 60.5798 45.5411 60.8402 45.0919C61.1007 44.6427 61.1718 44.1086 61.0377 43.6071C60.9036 43.1056 60.5755 42.6779 60.1254 42.4179C59.6753 42.1579 59.1401 42.087 58.6377 42.2208L50.497 44.3968L42.3299 39.6939C43.1859 37.3054 43.1859 34.6946 42.3299 32.3061L50.497 27.6032L58.6377 29.7792C58.804 29.824 58.9753 29.8476 59.1476 29.8494C59.6232 29.8495 60.0825 29.6769 60.4399 29.3637C60.7973 29.0505 61.0282 28.6182 61.0896 28.1476C61.151 27.6769 61.0386 27.2 60.7734 26.8059C60.5083 26.4119 60.1085 26.1277 59.6487 26.0063L55.297 24.8306L62.5146 20.6717C62.9658 20.4122 63.2952 19.9845 63.4304 19.4827C63.5656 18.9808 63.4955 18.4459 63.2355 17.9956C62.9755 17.5453 62.547 17.2166 62.0441 17.0816C61.5413 16.9467 61.0053 17.0167 60.5542 17.2761L53.3365 21.435L54.5058 17.0919C54.5722 16.8436 54.5889 16.5847 54.555 16.3299C54.5211 16.0751 54.4373 15.8295 54.3083 15.6071C54.1793 15.3847 54.0077 15.1898 53.8033 15.0336C53.5988 14.8773 53.3656 14.7628 53.1168 14.6966C52.868 14.6303 52.6085 14.6136 52.3533 14.6474C52.098 14.6812 51.8519 14.7649 51.6291 14.8936C51.4062 15.0224 51.2109 15.1936 51.0544 15.3977C50.8979 15.6017 50.7831 15.8346 50.7167 16.0829L48.5365 24.2077L40.3694 28.9193C38.7261 26.983 36.4614 25.6746 33.9606 25.2167V15.8109L39.9211 9.86205C40.2883 9.49555 40.4946 8.99846 40.4946 8.48014C40.4946 7.96182 40.2883 7.46473 39.9211 7.09822C39.5538 6.73172 39.0558 6.52581 38.5364 6.52581C38.0171 6.52581 37.519 6.73172 37.1518 7.09822L33.9606 10.2832V1.95662C33.9606 1.43769 33.754 0.940017 33.3864 0.57308C33.0187 0.206144 32.5201 0 32.0001 0C31.4802 0 30.9815 0.206144 30.6139 0.57308C30.2462 0.940017 30.0397 1.43769 30.0397 1.95662V10.2744L26.8484 7.08945C26.4812 6.72294 25.9832 6.51704 25.4638 6.51704C24.9445 6.51704 24.4464 6.72294 24.0792 7.08945C23.712 7.45595 23.5057 7.95304 23.5057 8.47136C23.5057 8.98968 23.712 9.48677 24.0792 9.85328L30.0397 15.8021V25.2079C27.5389 25.6658 25.2742 26.9742 23.6308 28.9106L15.4638 24.1989L13.2835 16.0829C13.2171 15.8346 13.1024 15.6017 12.9459 15.3977C12.7893 15.1936 12.594 15.0224 12.3712 14.8936C12.1483 14.7649 11.9022 14.6812 11.647 14.6474C11.3917 14.6136 11.1323 14.6303 10.8835 14.6966C10.6347 14.7628 10.4014 14.8773 10.197 15.0336C9.99253 15.1898 9.82091 15.3847 9.69193 15.6071C9.56295 15.8295 9.47912 16.0751 9.44525 16.3299C9.41137 16.5847 9.4281 16.8436 9.49448 17.0919L10.6637 21.435L3.44608 17.2761C2.99492 17.0167 2.45896 16.9467 1.95612 17.0816C1.45327 17.2166 1.02472 17.5453 0.764748 17.9956C0.504775 18.4459 0.434675 18.9808 0.569867 19.4827C0.705059 19.9845 1.03447 20.4122 1.48563 20.6717L8.70327 24.8306L4.34279 25.9976C3.88301 26.1189 3.4832 26.4031 3.21803 26.7972C2.95287 27.1912 2.84048 27.6681 2.90185 28.1388C2.96322 28.6095 3.19417 29.0418 3.55155 29.3549C3.90893 29.6681 4.36831 29.8407 4.8439 29.8406C5.01645 29.8432 5.18838 29.8195 5.35379 29.7704L13.4945 27.5944L21.6616 32.2973C20.8056 34.6858 20.8056 37.2966 21.6616 39.6851L13.4945 44.388L5.36258 42.2208C4.86012 42.087 4.32499 42.1579 3.8749 42.4179C3.42481 42.6779 3.09663 43.1056 2.96257 43.6071C2.8285 44.1086 2.89952 44.6427 3.16002 45.0919C3.42051 45.5411 3.84913 45.8686 4.35159 46.0024L8.70327 47.1694L1.48563 51.3283C1.25831 51.4541 1.05831 51.6238 0.897277 51.8275C0.73624 52.0311 0.617373 52.2647 0.547587 52.5146C0.477801 52.7645 0.458487 53.0258 0.490769 53.2832C0.523051 53.5407 0.606284 53.7891 0.73563 54.0142C0.864976 54.2392 1.03786 54.4363 1.24422 54.5941C1.45057 54.7519 1.6863 54.8671 1.93768 54.9332C2.18907 54.9992 2.4511 55.0147 2.70854 54.9788C2.96598 54.9428 3.2137 54.8562 3.43729 54.7239L10.6549 50.565L9.49448 54.8993C9.42805 55.1477 9.41128 55.4066 9.44514 55.6614C9.479 55.9161 9.56282 56.1618 9.69181 56.3842C9.8208 56.6066 9.99243 56.8015 10.1969 56.9577C10.4014 57.114 10.6347 57.2285 10.8835 57.2947C11.0498 57.3395 11.2211 57.3631 11.3934 57.3649C11.824 57.3642 12.2425 57.2221 12.5841 56.9604C12.9257 56.6988 13.1715 56.3321 13.2835 55.9171L15.4638 47.7924L23.6308 43.0807C25.2742 45.017 27.5389 46.3254 30.0397 46.7833V56.1891L24.0792 62.138C23.8974 62.3194 23.7531 62.5349 23.6547 62.772C23.5563 63.0091 23.5057 63.2632 23.5057 63.5199C23.5057 63.7765 23.5563 64.0306 23.6547 64.2678C23.7531 64.5049 23.8974 64.7203 24.0792 64.9018C24.261 65.0833 24.4769 65.2272 24.7145 65.3254C24.952 65.4236 25.2067 65.4742 25.4638 65.4742C25.721 65.4742 25.9756 65.4236 26.2132 65.3254C26.4507 65.2272 26.6666 65.0833 26.8484 64.9018L30.0397 61.7168V70.0434C30.0397 70.5623 30.2462 71.06 30.6139 71.4269C30.9815 71.7939 31.4802 72 32.0001 72C32.5201 72 33.0187 71.7939 33.3864 71.4269C33.754 71.06 33.9606 70.5623 33.9606 70.0434V61.7256L37.1518 64.9106C37.334 65.0926 37.5506 65.2367 37.7891 65.3346C38.0275 65.4325 38.283 65.4822 38.5408 65.4809C39.0608 65.4796 39.5595 65.2748 39.9299 64.9106C40.1117 64.7291 40.256 64.5137 40.3544 64.2766C40.4529 64.0394 40.5035 63.7853 40.5035 63.5286C40.5035 63.272 40.4529 63.0178 40.3544 62.7807C40.256 62.5436 40.1117 62.3282 39.9299 62.1467L33.9694 56.1979V46.7833C36.4702 46.3254 38.7349 45.017 40.3782 43.0807L48.5453 47.7924L50.7255 55.9171C50.8371 56.3324 51.0828 56.6993 51.4245 56.961C51.7663 57.2227 52.1849 57.3647 52.6157 57.3649C52.7882 57.3674 52.9601 57.3438 53.1255 57.2947C53.3744 57.2285 53.6077 57.114 53.8121 56.9577C54.0166 56.8015 54.1883 56.6066 54.3172 56.3842C54.4462 56.1618 54.53 55.9161 54.5639 55.6614C54.5978 55.4066 54.581 55.1477 54.5146 54.8993L53.3453 50.5562L60.563 54.7151C61.0127 54.9696 61.545 55.0365 62.0439 54.9011C62.5427 54.7657 62.9678 54.439 63.2264 53.9922C63.4851 53.5454 63.5563 53.0147 63.4246 52.5158C63.2929 52.0168 62.969 51.59 62.5234 51.3283ZM32.0001 43.0456C30.6039 43.0456 29.2391 42.6324 28.0781 41.8582C26.9172 41.084 26.0124 39.9836 25.4781 38.6962C24.9438 37.4088 24.804 35.9922 25.0764 34.6255C25.3488 33.2588 26.0211 32.0034 27.0084 31.018C27.9957 30.0327 29.2535 29.3617 30.6229 29.0898C31.9923 28.818 33.4117 28.9575 34.7016 29.4907C35.9916 30.024 37.0941 30.927 37.8698 32.0857C38.6455 33.2443 39.0595 34.6065 39.0595 36C39.0581 37.8682 38.3139 39.6594 36.9903 40.9804C35.6667 42.3014 33.872 43.0442 32.0001 43.0456Z" fill="#262624"/>
</g>
<defs>
<clipPath id="clip0_1788_107398">
<rect width="63" height="72" fill="white" transform="translate(0.5)"/>
</clipPath>
</defs>
</svg>
