<svg width="176" height="49" viewBox="0 0 176 49" fill="none" xmlns="http://www.w3.org/2000/svg">
<g clip-path="url(#clip0_1463:249676)">
<path d="M60.7526 28.9094V20.1555C60.7526 17.8296 60.4741 16.4316 59.22 15.1281C58.5148 14.4147 57.6721 13.852 56.743 13.4742C55.814 13.0963 54.818 12.9112 53.8153 12.93C51.2101 12.93 48.7887 14.6527 47.9049 15.6776C47.813 15.8156 47.6725 15.7696 47.7184 15.629C47.7644 15.4884 47.767 14.3741 47.813 14.1415C47.9509 13.2086 47.1616 12.7434 46.5563 13.1626L43.2052 15.537C43.0631 15.63 42.9435 15.7534 42.8552 15.8985C42.7668 16.0435 42.7119 16.2064 42.6943 16.3753C42.6943 16.6079 42.7863 16.7945 42.9728 16.8405C43.905 16.9351 44.2754 17.3057 44.2754 18.052V28.9554C44.2754 30.0263 43.2052 30.0263 42.8808 30.2614C42.6943 30.3995 42.6943 30.678 42.6943 30.9132C42.6943 31.2838 42.7863 31.4704 43.1132 31.4704H48.8832C49.1616 31.4704 49.3021 31.2378 49.3021 30.9132C49.3021 30.678 49.3021 30.402 49.1156 30.2614C48.7887 30.0263 47.7184 30.0263 47.7184 28.9554V17.5485C47.7184 16.9453 47.813 16.6642 48.3698 16.3856C49.6574 15.869 51.0309 15.6002 52.4182 15.5932C54.6046 15.5932 55.9098 16.153 56.6071 17.1268C57.1639 17.8731 57.3504 18.898 57.3504 21.2162V28.8992C57.3504 29.9701 56.2801 29.9701 55.9558 30.2026C55.7693 30.3432 55.7693 30.6218 55.7693 30.8544C55.7693 31.2276 55.9098 31.4141 56.1882 31.4141H61.9581C62.2365 31.4141 62.377 31.2276 62.377 30.8544C62.3285 30.6218 62.3285 30.3432 62.1446 30.2026C61.8177 29.9701 60.7474 29.9701 60.7474 28.8992" fill="#231F20"/>
<path d="M131.149 28.9099V20.156C131.149 17.8301 130.87 16.4321 129.616 15.1286C128.914 14.4124 128.073 13.8479 127.144 13.4698C126.215 13.0918 125.219 12.9082 124.217 12.9305C121.609 12.9305 119.144 14.6532 118.306 15.6781C118.214 15.8161 118.074 15.7241 118.12 15.6295C118.166 15.535 118.166 14.3746 118.214 14.142C118.352 13.2091 117.563 12.7439 116.958 13.1631L113.607 15.5375C113.464 15.6305 113.345 15.754 113.257 15.899C113.168 16.044 113.113 16.2069 113.096 16.3759C113.096 16.6084 113.188 16.795 113.374 16.841C114.304 16.9356 114.677 17.3062 114.677 18.0525V28.9559C114.677 30.0268 113.607 30.0268 113.282 30.262C113.096 30.4 113.096 30.6786 113.096 30.9137C113.096 31.2843 113.234 31.4709 113.515 31.4709H119.285C119.563 31.4709 119.703 31.2843 119.703 30.9137C119.703 30.6786 119.703 30.4025 119.517 30.262C119.19 30.0754 118.12 30.0268 118.12 28.9559V17.549C118.12 16.9458 118.214 16.6647 118.771 16.3861C120.059 15.8695 121.432 15.6007 122.82 15.5938C125.006 15.5938 126.309 16.1535 127.008 17.0838C127.565 17.8301 127.752 18.8525 127.752 21.1732V28.8562C127.752 29.9271 126.636 29.9271 126.357 30.1597C126.171 30.3003 126.171 30.5789 126.171 30.8115C126.171 31.1846 126.309 31.3712 126.59 31.3712H132.36C132.638 31.3712 132.776 31.1386 132.776 30.8115C132.776 30.5789 132.776 30.3003 132.592 30.1597C132.265 30.0191 131.149 29.9731 131.149 28.9022" fill="#231F20"/>
<path d="M153.575 26.7316C153.493 26.6935 153.403 26.6777 153.313 26.6858C153.223 26.6939 153.137 26.7256 153.064 26.7776C151.503 28.1768 149.484 28.9551 147.388 28.9654C143.34 28.9654 140.129 25.9878 140.129 21.0984C140.129 17.6531 142.684 14.765 145.899 14.765C148.364 14.765 150.226 16.0225 150.497 17.188C150.87 18.7215 150.916 19.0972 151.427 19.0972C151.938 19.0972 152.032 18.816 152.264 18.1183C152.497 17.4205 152.916 16.3496 153.102 15.8845C153.243 15.5113 153.102 15.3247 152.732 14.9976C151.199 13.6481 149.054 12.9043 146.17 12.9043C141.424 12.9043 137.144 17.4665 137.144 22.448C137.144 28.1757 141.516 31.713 146.17 31.713C147.745 31.7631 149.306 31.4035 150.701 30.6693C152.095 29.935 153.276 28.8513 154.126 27.5239C154.313 27.2428 153.894 26.9182 153.567 26.7316" fill="#231F20"/>
<path d="M3.75278 17.1782C3.75278 15.5476 4.63654 14.6224 6.54453 14.6224C7.93913 14.6224 9.28774 15.5527 9.98759 16.345C10.8228 17.3214 11.1038 17.6485 11.5686 17.4619C12.0335 17.2754 11.9875 16.9968 11.9416 16.2504C11.8956 15.5041 11.8471 14.7604 11.8471 14.2057C11.8471 13.7866 11.6146 13.646 11.1498 13.508C9.72195 13.0523 8.2261 12.8474 6.72844 12.9023C2.91501 12.9023 0.820563 15.8338 0.820563 18.2568C0.820563 24.3091 10.312 23.2382 10.312 26.9622C10.312 29.104 9.00934 29.9883 7.33378 29.9883C5.34009 29.9736 3.4331 29.1706 2.0287 27.7545C1.09897 26.7756 0.820561 26.451 0.355696 26.6376C-0.109169 26.8241 -0.0172191 27.1027 0.0747322 27.8465C0.166683 28.5902 0.261192 29.3366 0.309722 29.8912C0.355698 30.3104 0.542157 30.4969 0.958492 30.7295C2.73602 31.4868 4.66044 31.8361 6.59051 31.7519C10.0336 31.7519 13.1497 29.196 13.1497 26.1162C13.1037 19.8772 3.75278 21.4619 3.75278 17.1706" fill="#231F20"/>
<path d="M175.308 25.978C175.22 25.9427 175.122 25.9371 175.03 25.962C174.938 25.9869 174.856 26.0409 174.797 26.116C174.061 27.0522 173.121 27.8075 172.048 28.3241C170.976 28.8406 169.799 29.1047 168.609 29.0962C165.771 29.0962 163.444 27.1869 162.282 24.4419L174.892 20.0177C175.73 19.6905 175.914 19.5525 175.914 19.2253C175.914 17.8758 173.03 12.9404 167.679 12.9404C163.725 12.9404 158.606 16.7589 158.606 22.4841C158.606 28.2093 162.747 31.7492 167.401 31.7492C171.587 31.7492 174.379 29.9805 175.962 26.7217C176.149 26.3486 175.681 26.07 175.311 25.978H175.308ZM161.49 20.5748C161.49 17.4107 163.863 15.1283 166.655 15.1283C167.899 15.173 169.102 15.5852 170.112 16.3129C171.123 17.0406 171.895 18.0513 172.333 19.2177L161.771 22.9902C161.583 22.1963 161.489 21.3831 161.49 20.5672" fill="#231F20"/>
<path d="M108.72 29.8425C108.577 29.8507 108.435 29.8818 108.301 29.9345C108.088 29.9875 107.87 30.0183 107.65 30.0265C107.389 30.0371 107.13 29.9733 106.904 29.8425C106.617 29.6454 106.391 29.3706 106.253 29.0502C106.076 28.7353 105.965 28.3873 105.929 28.0278C105.827 27.3341 105.795 26.632 105.834 25.932V18.7142C105.865 17.7156 105.707 16.7201 105.369 15.78C105.094 15.0754 104.646 14.4514 104.067 13.9653C103.468 13.4988 102.768 13.1793 102.023 13.0325C98.9581 12.3807 96.1613 13.081 93.5943 14.8037C93.1755 15.0823 92.989 15.2689 93.0835 15.688C93.2214 16.1992 93.4539 17.3647 93.5943 18.0164C93.7348 18.6682 93.9213 19.0873 94.3861 19.0873C94.851 19.0873 94.9915 18.7142 95.6428 17.1781C96.1077 16.0586 96.8509 14.9417 98.0616 14.4765C99.2723 14.0114 100.899 14.4765 101.551 15.5935C102.102 16.5874 102.361 17.7173 102.296 18.8522C102.318 19.2308 102.27 19.6101 102.156 19.9717C101.979 20.2187 101.712 20.3859 101.413 20.4368C101.063 20.5657 100.705 20.674 100.343 20.7614C99.9236 20.856 99.5047 20.948 98.9914 21.0426C98.1536 21.23 97.2698 21.4626 96.3401 21.7403C95.4629 22.0165 94.6197 22.3912 93.8268 22.8573C93.065 23.2945 92.4126 23.8993 91.9188 24.6259C91.4016 25.3944 91.1414 26.3071 91.1755 27.2329C91.1242 27.9489 91.2815 28.6643 91.6283 29.2926C91.9751 29.9209 92.4966 30.4351 93.1295 30.7728C93.6759 31.083 94.2753 31.2884 94.897 31.3786C95.498 31.4702 96.105 31.5164 96.713 31.5166C97.8684 31.5436 99.0147 31.3058 100.064 30.8214C101.14 30.2425 102.016 29.3516 102.577 28.2655C102.637 28.6809 102.745 29.0877 102.902 29.477C103.081 29.8637 103.334 30.2112 103.648 30.4993C103.987 30.8156 104.381 31.0676 104.81 31.2431C105.333 31.4297 105.884 31.524 106.439 31.5217C107.423 31.5578 108.395 31.2988 109.231 30.7779C109.185 30.1262 108.999 29.8476 108.72 29.8476V29.8425ZM102.299 24.9429C102.315 25.5988 102.187 26.2503 101.926 26.8521C101.688 27.4037 101.375 27.9198 100.996 28.3856C100.608 28.8015 100.151 29.1473 99.6452 29.408C99.1515 29.6454 98.6119 29.7719 98.0642 29.7786C97.6848 29.7845 97.3082 29.7136 96.957 29.5699C96.6059 29.4263 96.2874 29.213 96.0208 28.9428C95.7278 28.6146 95.5028 28.2314 95.359 27.8154C95.2152 27.3995 95.1553 26.9591 95.183 26.5198C95.1418 25.8304 95.3207 25.1456 95.6939 24.5646C96.0305 24.0424 96.4746 23.598 96.9965 23.2611C97.5587 22.8979 98.1692 22.6157 98.81 22.4228C99.5099 22.2362 100.207 22.0496 100.95 21.9116L102.302 21.725L102.299 24.9429Z" fill="#231F20"/>
<path d="M86.0608 30.2136C85.7339 29.981 84.6637 29.981 84.6637 28.91V2.60494C84.6529 2.15454 84.6691 1.7039 84.7122 1.25544C84.8501 0.368546 84.1069 -0.234641 83.5015 0.0899561L79.826 1.76661C79.4991 1.90719 79.3152 2.09121 79.3152 2.37235C79.2965 2.47654 79.314 2.58397 79.3646 2.67691C79.4152 2.76985 79.496 2.84273 79.5936 2.88353C80.7098 3.16212 81.2206 3.62984 81.2206 4.37361V13.9658C79.7404 13.2111 78.0881 12.8585 76.4289 12.9435C71.4508 12.9435 66.9375 17.4137 66.9375 22.4871C66.9375 28.2149 71.2643 31.7548 75.6371 31.7548C76.5903 31.7728 77.5377 31.6013 78.4242 31.2504C79.3108 30.8994 80.1189 30.3758 80.8017 29.71C80.8229 29.6881 80.8483 29.6706 80.8764 29.6587C80.9045 29.6468 80.9347 29.6406 80.9652 29.6406C80.9957 29.6406 81.0259 29.6468 81.054 29.6587C81.0821 29.6706 81.1075 29.6881 81.1287 29.71C81.157 29.7323 81.1799 29.7606 81.1958 29.7929C81.2118 29.8252 81.2202 29.8606 81.2206 29.8966C81.2176 30.0952 81.2537 30.2924 81.3269 30.477C81.4001 30.6616 81.509 30.83 81.6473 30.9724C81.7857 31.1148 81.9507 31.2286 82.133 31.3071C82.3153 31.3857 82.5113 31.4275 82.7097 31.4302H85.8284C86.1068 31.4302 86.2473 31.2436 86.2473 30.8704C86.2473 30.5918 86.2473 30.3132 86.0608 30.2187V30.2136ZM80.4416 28.174C79.5617 28.9622 78.4111 29.379 77.2309 29.3369C73.1825 29.3369 70.2043 26.0321 70.2043 21.1427C70.2043 17.6514 72.6232 15.0444 75.6014 15.0444C78.5796 15.0444 81.2206 16.9997 81.2206 18.9549V26.367C81.2455 26.7111 81.1867 27.0562 81.0492 27.3726C80.9118 27.6891 80.6998 27.9676 80.4313 28.1842" fill="#231F20"/>
<path d="M37.3455 30.213C37.0186 29.9804 35.9484 29.9804 35.9484 28.9095V15.4554C35.9403 15.0041 35.9565 14.5528 35.9969 14.1033C36.1348 13.219 35.3915 12.6618 34.7862 12.9404L31.0647 14.617C30.7378 14.755 30.5539 14.9416 30.5539 15.2228C30.5465 15.326 30.569 15.4292 30.6189 15.5199C30.6687 15.6106 30.7437 15.6849 30.8348 15.7339C31.951 16.0125 32.5078 16.4777 32.4619 17.224V27.0948C32.4619 27.7006 32.3699 28.0252 31.8105 28.2578C30.517 28.754 29.1472 29.0221 27.7621 29.0501C23.8542 29.0501 22.784 26.7217 22.784 23.6035V15.4554C22.7738 15.0042 22.7891 14.5527 22.83 14.1033C22.9704 13.219 22.2272 12.6618 21.6218 12.9404L17.8952 14.617C17.5709 14.755 17.3844 14.9416 17.3844 15.2228C17.3764 15.3258 17.3985 15.4289 17.4479 15.5196C17.4973 15.6104 17.572 15.6848 17.6628 15.7339C18.779 16.0125 19.3384 16.4777 19.3384 17.224V24.6361C19.3384 28.4546 21.5248 31.7619 25.8056 31.7619C28.2244 31.7619 30.3189 30.6424 31.808 29.4795L31.9944 29.3389C32.0186 29.3196 32.0464 29.3055 32.0763 29.2973C32.1061 29.2892 32.1372 29.2872 32.1678 29.2915C32.1984 29.2958 32.2278 29.3063 32.2542 29.3224C32.2806 29.3384 32.3035 29.3597 32.3214 29.3849C32.3388 29.4036 32.3519 29.4259 32.3598 29.4501C32.3677 29.4744 32.3703 29.5001 32.3674 29.5255V29.8986C32.37 30.293 32.5278 30.6704 32.8065 30.9493C33.0852 31.2282 33.4624 31.386 33.8565 31.3887H37.159C37.4375 31.3887 37.5779 31.2021 37.5779 30.829C37.532 30.5964 37.532 30.3178 37.3455 30.2232" fill="#231F20"/>
<path d="M27.812 48.756L25.8402 42.972V48.756H24.5938V41.1982H26.4328L28.3382 46.9822L30.2411 41.1982H32.0163V48.6921H30.7673V42.9056L28.798 48.6921L27.812 48.756Z" fill="#231F20"/>
<path d="M38.5156 41.1318C40.5589 41.1318 41.9969 42.7088 41.9969 45.0117C41.9969 47.3145 40.5513 48.8889 38.5156 48.8889C36.4799 48.8889 35.0342 47.312 35.0342 45.0117C35.0342 42.7114 36.4773 41.1318 38.5156 41.1318ZM38.5156 42.3152C37.2666 42.3152 36.347 43.3682 36.347 45.0117C36.347 46.6551 37.2001 47.7056 38.5156 47.7056C39.831 47.7056 40.6841 46.6551 40.6841 45.0117C40.6841 43.3682 39.762 42.3229 38.5156 42.3229" fill="#231F20"/>
<path d="M44.4912 45.7349V41.1982H45.8066V45.6685C45.8066 47.0487 46.4631 47.6391 47.5154 47.6391C48.5677 47.6391 49.2216 47.0487 49.2216 45.6685V41.1982H50.5396V45.7349C50.5396 47.8384 49.2906 48.8224 47.518 48.8224C45.7453 48.8224 44.4938 47.8384 44.4938 45.7349" fill="#231F20"/>
<path d="M59.9368 48.756H58.7542L55.0072 43.2353V48.756H53.6943V41.1982H55.0736L58.6214 46.4557V41.1982H59.9368V48.756Z" fill="#231F20"/>
<path d="M66.4651 42.3816V48.6921H65.1497V42.3816H62.7207V41.1982H68.8967V42.3816H66.4651Z" fill="#231F20"/>
<path d="M74.6411 41.1982L77.4661 48.6921H76.1532L75.4968 46.9822H72.2759L71.6195 48.6921H70.3066L73.1316 41.1982H74.6411ZM72.6718 45.7988H75.037L73.8544 42.6449L72.6718 45.7988Z" fill="#231F20"/>
<path d="M81.4007 41.1982H80.0879V48.7585H81.4007V41.1982Z" fill="#231F20"/>
<path d="M91.0339 48.756H89.8513L86.1068 43.2353V48.756H84.7939V41.1982H86.2396L89.7875 46.4557V41.1982H91.0339V48.756Z" fill="#231F20"/>
<path d="M102.504 48.7585H101.191V41.1982H104.213C105.922 41.1982 106.908 41.9855 106.908 43.4985C106.935 44.0184 106.766 44.5294 106.435 44.931C106.104 45.3326 105.635 45.5957 105.12 45.6685L107.092 48.6921H105.58L103.741 45.7988H102.491L102.504 48.7585ZM104.083 44.6819C105.066 44.6819 105.526 44.2883 105.526 43.4985C105.526 42.7088 105.015 42.3152 104.083 42.3152H102.504V44.6155H104.083V44.6819Z" fill="#231F20"/>
<path d="M114.953 41.1982V42.3816H111.209V44.2883H114.361V45.4717H111.209V47.5752H114.953V48.756H109.894V41.1982H114.953Z" fill="#231F20"/>
<path d="M118.873 46.3918C119.086 46.7829 119.399 47.1104 119.78 47.3412C120.161 47.5719 120.596 47.6976 121.042 47.7055C121.897 47.7055 122.554 47.3119 122.554 46.5886C122.554 45.8652 121.764 45.7349 120.648 45.4716C119.532 45.2084 118.283 44.8787 118.283 43.3682C118.283 41.8576 119.466 41.0679 120.975 41.0679C121.516 41.033 122.057 41.1423 122.542 41.3848C123.027 41.6273 123.439 41.9942 123.736 42.448L122.75 43.3043C122.568 42.9734 122.302 42.6962 121.98 42.5002C121.657 42.3042 121.289 42.1963 120.911 42.1873C120.122 42.1873 119.532 42.5809 119.532 43.1714C119.532 43.7618 120.122 43.9611 121.108 44.2244C122.357 44.48 123.8 44.7509 123.8 46.3943C123.8 47.8409 122.487 48.7611 120.975 48.7611C120.363 48.762 119.759 48.6193 119.211 48.3446C118.664 48.0698 118.189 47.6707 117.823 47.179L118.873 46.3918Z" fill="#231F20"/>
<path d="M130.112 41.1318C132.156 41.1318 133.596 42.7088 133.596 45.0117C133.596 47.3145 132.15 48.8889 130.112 48.8889C128.074 48.8889 126.631 47.312 126.631 45.0117C126.631 42.7114 128.077 41.1318 130.112 41.1318ZM130.112 42.3152C128.866 42.3152 127.946 43.3682 127.946 45.0117C127.946 46.6551 128.866 47.7056 130.112 47.7056C131.359 47.7056 132.273 46.6679 132.273 45.0117C132.273 43.3555 131.361 42.3229 130.112 42.3229" fill="#231F20"/>
<path d="M138.201 48.7585H136.888V41.1982H139.909C141.552 41.1982 142.601 41.9855 142.601 43.4985C142.629 44.0162 142.463 44.5256 142.135 44.927C141.807 45.3284 141.341 45.5928 140.829 45.6685L142.798 48.6921H141.289L139.45 45.7988H138.201V48.7585ZM139.776 44.6819C140.762 44.6819 141.222 44.2883 141.222 43.4985C141.222 42.7088 140.704 42.3228 139.776 42.3228H138.201V44.6231H139.776V44.6819Z" fill="#231F20"/>
<path d="M148.977 42.3816V48.6921H147.664V42.3816H145.232V41.1982H151.409V42.3816H148.977Z" fill="#231F20"/>
</g>
<defs>
<clipPath id="clip0_1463:249676">
<rect width="176" height="48.8889" fill="white"/>
</clipPath>
</defs>
</svg>
