<svg width="40" height="41" viewBox="0 0 40 41" fill="none" xmlns="http://www.w3.org/2000/svg">
<circle cx="20" cy="20.5" r="19.5523" fill="white" stroke="#262624" stroke-width="0.895408"/>
<path d="M15.2183 20.3901V19.0658H15.7663C16.2331 19.0658 16.6086 18.9491 16.8927 18.7157C17.187 18.4721 17.3341 18.1372 17.3341 17.711C17.3341 17.3254 17.2022 17.0057 16.9384 16.752C16.6847 16.4983 16.3396 16.3715 15.9033 16.3715C15.4263 16.3715 15.0509 16.5085 14.7769 16.7825C14.5029 17.0565 14.3506 17.4066 14.3202 17.8328H12.7676C12.869 17.0007 13.1989 16.3207 13.757 15.7931C14.3253 15.2654 15.0356 15.0015 15.8881 15.0015C16.7912 15.0015 17.5016 15.2451 18.0191 15.7322C18.5468 16.2091 18.8107 16.8383 18.8107 17.6197C18.8107 18.1068 18.699 18.5381 18.4758 18.9135C18.2627 19.289 17.9684 19.5579 17.5929 19.7203C18.0496 19.9131 18.3946 20.2023 18.628 20.588C18.8716 20.9634 18.9933 21.3795 18.9933 21.8362C18.9933 22.648 18.7143 23.3228 18.1561 23.8607C17.598 24.3884 16.847 24.6522 15.9033 24.6522C14.9494 24.6522 14.1629 24.3833 13.5439 23.8455C12.935 23.2975 12.6052 22.582 12.5545 21.6992H14.0919C14.1426 22.1863 14.3202 22.577 14.6246 22.8713C14.9392 23.1554 15.3604 23.2975 15.8881 23.2975C16.365 23.2975 16.7506 23.1655 17.0449 22.9017C17.3494 22.6277 17.5016 22.2776 17.5016 21.8514C17.5016 21.4049 17.3443 21.0497 17.0297 20.7858C16.7151 20.522 16.3092 20.3901 15.812 20.3901H15.2183ZM24.4709 17.7262C24.4709 17.3305 24.3389 17.0108 24.0751 16.7673C23.8214 16.5237 23.4764 16.4019 23.04 16.4019C22.5935 16.4019 22.2383 16.5491 21.9745 16.8434C21.7208 17.1275 21.5787 17.4979 21.5482 17.9546H19.9195C20.0108 17.0717 20.3356 16.3613 20.8937 15.8235C21.462 15.2755 22.1774 15.0015 23.04 15.0015C23.9736 15.0015 24.6992 15.2451 25.2167 15.7322C25.7444 16.2193 26.0083 16.8789 26.0083 17.711C26.0083 17.8328 25.9981 17.9546 25.9778 18.0763C25.9575 18.1981 25.922 18.325 25.8713 18.4569C25.8205 18.5888 25.7749 18.7055 25.7343 18.807C25.6937 18.8983 25.6226 19.015 25.5212 19.1571C25.4197 19.2992 25.3436 19.4108 25.2928 19.492C25.2522 19.563 25.1609 19.6797 25.0188 19.8421C24.8869 20.0045 24.7956 20.1161 24.7448 20.177C24.6941 20.2277 24.5825 20.3444 24.41 20.5271C24.2476 20.7097 24.1461 20.8264 24.1055 20.8772L22.0962 23.1148H26.1605V24.5H19.9347V23.4649L22.7051 20.3901C22.7761 20.319 22.8776 20.2074 23.0095 20.0552C23.1516 19.903 23.2531 19.7913 23.314 19.7203C23.385 19.6391 23.4764 19.5376 23.588 19.4159C23.6996 19.2839 23.7808 19.1825 23.8315 19.1114C23.8924 19.0303 23.9635 18.9338 24.0446 18.8222C24.1258 18.7106 24.1867 18.6142 24.2273 18.533C24.2679 18.4518 24.3085 18.3656 24.3491 18.2742C24.3998 18.1727 24.4303 18.0814 24.4404 18.0002C24.4607 17.9089 24.4709 17.8176 24.4709 17.7262Z" fill="#262624"/>
<circle cx="30.0833" cy="16.5833" r="1.63563" fill="white" stroke="#333333" stroke-width="0.895408"/>
</svg>
