<svg width="92" height="61" viewBox="0 0 92 61" fill="none" xmlns="http://www.w3.org/2000/svg">
<g clip-path="url(#clip0_1788_107388)">
<path d="M62.6464 28.547L50.0522 21.2123C49.7972 21.0612 49.5147 20.9623 49.2211 20.9215C48.9275 20.8807 48.6287 20.8988 48.3422 20.9746C48.0557 21.0505 47.7871 21.1826 47.552 21.3633C47.317 21.544 47.1202 21.7697 46.9732 22.0272C46.8235 22.2828 46.7259 22.5655 46.6858 22.8589C46.6458 23.1524 46.6641 23.4509 46.7398 23.7373C46.8155 24.0237 46.947 24.2922 47.1269 24.5275C47.3067 24.7628 47.5313 24.9601 47.7877 25.1082L60.3819 32.443C60.7251 32.6448 61.116 32.7511 61.5142 32.7511C61.9144 32.7597 62.3096 32.661 62.6589 32.4652C63.0082 32.2695 63.2988 31.9839 63.5006 31.638C63.6476 31.3789 63.742 31.0935 63.7786 30.7979C63.8152 30.5023 63.7932 30.2024 63.7139 29.9153C63.6346 29.6282 63.4995 29.3596 63.3163 29.1248C63.1331 28.89 62.9055 28.6937 62.6464 28.547Z" fill="#262624"/>
<path d="M88.3017 14.5931C88.8785 14.0138 89.2023 13.2293 89.2023 12.4115C89.2023 11.5938 88.8785 10.8093 88.3017 10.23L82.3423 4.26677C81.7633 3.6896 80.9794 3.36553 80.1621 3.36553C79.3449 3.36553 78.5609 3.6896 77.982 4.26677L77.247 5.00224C72.5317 2.08634 67.097 0.544369 61.5539 0.549696C56.0108 0.544369 50.5762 2.08634 45.8608 5.00224L45.1258 4.26677C44.5452 3.68899 43.7596 3.36467 42.9407 3.36467C42.1219 3.36467 41.3363 3.68899 40.7556 4.26677L34.7962 10.23C34.2194 10.8093 33.8956 11.5938 33.8956 12.4115C33.8956 13.2293 34.2194 14.0138 34.7962 14.5931L35.6703 15.4578C32.9772 20.0127 31.5442 25.2027 31.5186 30.495C31.5291 38.4513 34.693 46.0786 40.3163 51.7036C45.9396 57.3287 53.563 60.4921 61.5142 60.5C69.4627 60.4895 77.0826 57.3246 82.7021 51.6995C88.3217 46.0745 91.4821 38.4487 91.49 30.495C91.4944 25.2119 90.0959 20.0224 87.4376 15.4578L88.3017 14.5931ZM61.5142 55.9978C54.7608 55.9899 48.2863 53.3012 43.5119 48.5218C38.7374 43.7424 36.053 37.2627 36.0477 30.505C36.053 23.7472 38.7374 17.2676 43.5119 12.4882C48.2863 7.70877 54.7608 5.02007 61.5142 5.01218C68.2659 5.02007 74.7388 7.7074 79.513 12.4847C84.2872 17.2619 86.9728 23.739 86.9807 30.495C86.9781 37.2545 84.2948 43.7367 79.52 48.5183C74.7453 53.2998 68.2693 55.9899 61.5142 55.9978Z" fill="#262624"/>
<path d="M6.45937 16.9883H27.3173C27.8441 16.9883 28.3494 16.7789 28.7219 16.4061C29.0945 16.0333 29.3037 15.5277 29.3037 15.0006C29.3037 14.4734 29.0945 13.9678 28.7219 13.595C28.3494 13.2222 27.8441 13.0128 27.3173 13.0128H6.45937C5.93252 13.0128 5.42726 13.2222 5.05472 13.595C4.68219 13.9678 4.4729 14.4734 4.4729 15.0006C4.4729 15.5277 4.68219 16.0333 5.05472 16.4061C5.42726 16.7789 5.93252 16.9883 6.45937 16.9883Z" fill="#262624"/>
<path d="M2.48647 27.573H23.3444C23.8712 27.573 24.3765 27.3636 24.749 26.9908C25.1215 26.618 25.3308 26.1125 25.3308 25.5853C25.3308 25.0581 25.1215 24.5525 24.749 24.1797C24.3765 23.807 23.8712 23.5975 23.3444 23.5975H2.48647C1.95962 23.5975 1.45436 23.807 1.08182 24.1797C0.709286 24.5525 0.5 25.0581 0.5 25.5853C0.5 26.1125 0.709286 26.618 1.08182 26.9908C1.45436 27.3636 1.95962 27.573 2.48647 27.573Z" fill="#262624"/>
<path d="M2.48647 38.1579H23.3444C23.8712 38.1579 24.3765 37.9484 24.749 37.5757C25.1215 37.2029 25.3308 36.6973 25.3308 36.1701C25.3308 35.6429 25.1215 35.1373 24.749 34.7646C24.3765 34.3918 23.8712 34.1824 23.3444 34.1824H2.48647C1.95962 34.1824 1.45436 34.3918 1.08182 34.7646C0.709286 35.1373 0.5 35.6429 0.5 36.1701C0.5 36.6973 0.709286 37.2029 1.08182 37.5757C1.45436 37.9484 1.95962 38.1579 2.48647 38.1579Z" fill="#262624"/>
<path d="M29.3037 46.7647C29.3037 46.2375 29.0945 45.7319 28.7219 45.3592C28.3494 44.9864 27.8441 44.777 27.3173 44.777H6.45937C5.93252 44.777 5.42726 44.9864 5.05472 45.3592C4.68219 45.7319 4.4729 46.2375 4.4729 46.7647C4.4729 47.2919 4.68219 47.7975 5.05472 48.1703C5.42726 48.543 5.93252 48.7525 6.45937 48.7525H27.3173C27.8441 48.7525 28.3494 48.543 28.7219 48.1703C29.0945 47.7975 29.3037 47.2919 29.3037 46.7647Z" fill="#262624"/>
</g>
<defs>
<clipPath id="clip0_1788_107388">
<rect width="91" height="60" fill="white" transform="translate(0.5 0.5)"/>
</clipPath>
</defs>
</svg>
