<svg width="24" height="24" viewBox="0 0 24 24" fill="none" xmlns="http://www.w3.org/2000/svg">
<g clip-path="url(#clip0_452:30218)">
<path d="M23.0122 9.531C23.2935 8.32425 24.1882 7.11675 24.1882 7.11675H20.1765C17.9227 5.6595 15.1912 4.89075 12.1605 4.89075C9.02022 4.89075 6.18446 5.6715 3.94571 7.14075H0.188965C0.188965 7.14075 1.07096 8.328 1.35596 9.5265C0.626215 10.5345 0.188965 11.7495 0.188965 13.0853C0.188965 16.3973 2.88822 19.0935 6.20022 19.0935C8.09547 19.0935 9.77396 18.2062 10.884 16.8397L12.1567 18.7537L13.4497 16.8158C14.0326 17.5659 14.7884 18.1639 15.6525 18.5588C17.1097 19.2188 18.7462 19.293 20.2462 18.738C23.352 17.586 24.9412 14.1172 23.8012 11.0122C23.6051 10.4805 23.3325 9.98025 22.992 9.52725L23.0122 9.531ZM19.8397 17.6047C19.2494 17.8259 18.6209 17.927 17.9911 17.9023C17.3612 17.8776 16.7426 17.7275 16.1715 17.4607C15.3591 17.0841 14.6698 16.4853 14.1832 15.7335C13.9792 15.4335 13.8082 15.1087 13.6792 14.7615C13.53 14.3663 13.4602 13.9605 13.4212 13.5465C13.347 12.7148 13.464 11.8748 13.8232 11.0933C14.0872 10.5197 14.4619 10.004 14.9257 9.57563C15.3896 9.14729 15.9335 8.8148 16.5262 8.59725C19.0155 7.683 21.7762 8.96025 22.6905 11.4405C23.6085 13.9215 22.3312 16.6838 19.8547 17.6017H19.8397V17.6047ZM10.1722 15.7703C9.73283 16.42 9.14103 16.9522 8.44851 17.3205C7.75599 17.6888 6.98382 17.8819 6.19946 17.883C3.55571 17.883 1.39871 15.7268 1.39871 13.086C1.39871 10.4453 3.55571 8.28525 6.19946 8.28525C8.84472 8.28525 10.9965 10.4453 10.9965 13.086C10.9965 13.2502 10.9695 13.398 10.9492 13.566C10.8675 14.3752 10.6095 15.141 10.1722 15.7853V15.7703ZM3.14771 13.023C3.14771 14.664 4.48347 15.9923 6.12072 15.9923C7.75797 15.9923 9.08996 14.664 9.08996 13.023C9.08996 12.2355 8.77713 11.4803 8.22029 10.9234C7.66345 10.3666 6.90821 10.0538 6.12072 10.0538C5.33322 10.0538 4.57798 10.3666 4.02114 10.9234C3.4643 11.4803 3.15146 12.2355 3.15146 13.023H3.14771ZM15.1987 13.023C15.1981 13.61 15.3717 14.1841 15.6974 14.6724C16.0232 15.1608 16.4865 15.5415 17.0287 15.7665C17.571 15.9915 18.1677 16.0505 18.7435 15.9362C19.3193 15.8219 19.8483 15.5393 20.2634 15.1243C20.6786 14.7092 20.9613 14.1803 21.0758 13.6046C21.1902 13.0288 21.1313 12.432 20.9065 11.8897C20.6817 11.3474 20.301 10.884 19.8128 10.5581C19.3245 10.2323 18.7505 10.0586 18.1635 10.059C17.3771 10.0598 16.6231 10.3722 16.0666 10.9277C15.5101 11.4832 15.1964 12.2367 15.1942 13.023H15.1987ZM4.17596 13.023C4.17616 12.5086 4.38008 12.0152 4.74313 11.6507C5.10618 11.2863 5.5988 11.0804 6.11321 11.0783C7.17596 11.0783 8.06246 11.9535 8.06246 13.023C8.06246 13.5405 7.8569 14.0367 7.49099 14.4027C7.12509 14.7686 6.62881 14.9741 6.11134 14.9741C5.59387 14.9741 5.09759 14.7686 4.73169 14.4027C4.36578 14.0367 4.16021 13.5405 4.16021 13.023H4.17596ZM16.2112 13.023C16.2112 12.5072 16.4161 12.0126 16.7808 11.6479C17.1455 11.2831 17.6402 11.0783 18.156 11.0783C18.6659 11.0896 19.151 11.3005 19.507 11.6657C19.8631 12.0309 20.0618 12.5211 20.0603 13.0311C20.0588 13.5412 19.8573 14.0303 19.4992 14.3934C19.141 14.7565 18.6547 14.9646 18.1447 14.973C17.8886 14.9733 17.6348 14.9231 17.3981 14.8252C17.1614 14.7273 16.9463 14.5837 16.7652 14.4025C16.5841 14.2214 16.4404 14.0063 16.3425 13.7696C16.2447 13.5329 16.1944 13.2792 16.1947 13.023H16.2112ZM12.156 5.94075C14.316 5.94075 16.266 6.32775 17.9767 7.10175C17.3259 7.11896 16.682 7.24024 16.0695 7.461C15.3268 7.73031 14.6456 8.14558 14.0659 8.68232C13.4863 9.21907 13.02 9.86644 12.6945 10.5863C12.3825 11.2463 12.2182 11.9453 12.1552 12.6525C12.0445 11.1575 11.3803 9.75741 10.2924 8.72595C9.20446 7.69449 7.77104 7.10574 6.27221 7.07475C7.98296 6.3405 9.96821 5.9415 12.1125 5.9415L12.156 5.94075Z" fill="black" fill-opacity="0.87"/>
</g>
<defs>
<clipPath id="clip0_452:30218">
<rect width="24" height="24" fill="white"/>
</clipPath>
</defs>
</svg>
