<svg width="16" height="8" viewBox="0 0 16 8" fill="none" xmlns="http://www.w3.org/2000/svg">
<path d="M8.04869 8C7.91796 7.98873 7.79062 7.94971 7.67407 7.88522L0.18165 0.998275C0.0761335 0.898713 0.0113746 0.758634 0.00136109 0.608297C-0.00865242 0.45796 0.0368834 0.309433 0.128132 0.194798C0.220974 0.0816446 0.351598 0.012198 0.491787 0.00145961C0.631976 -0.00927874 0.770478 0.0395535 0.877374 0.137407L8.04869 6.68L15.1665 0.137407C15.2749 0.0593437 15.4062 0.0264813 15.5356 0.0450097C15.6651 0.0635381 15.7837 0.132178 15.8693 0.238004C15.9548 0.343829 16.0013 0.479536 16 0.619567C15.9987 0.759598 15.9497 0.89429 15.8622 0.998275L8.3698 7.88522C8.27599 7.9573 8.16407 7.99731 8.04869 8Z" fill="white"/>
</svg>
