<svg width="70" height="61" viewBox="0 0 70 61" fill="none" xmlns="http://www.w3.org/2000/svg">
<g clip-path="url(#clip0_1788_107276)">
<path d="M27.335 42.335C25.819 43.851 24.7865 45.7825 24.3683 47.8852C23.95 49.988 24.1647 52.1676 24.9851 54.1483C25.8056 56.1291 27.195 57.8221 28.9776 59.0132C30.7602 60.2043 32.856 60.8401 35 60.8401C37.1439 60.8401 39.2397 60.2043 41.0224 59.0132C42.805 57.8221 44.1944 56.1291 45.0148 54.1483C45.8353 52.1676 46.05 49.988 45.6317 47.8852C45.2134 45.7825 44.181 43.851 42.665 42.335C40.6585 40.3022 37.9268 39.1497 35.0707 39.131C32.2146 39.1122 29.4679 40.2288 27.435 42.235L27.335 42.335ZM41.845 50.005C41.8425 51.5847 41.2924 53.1147 40.2885 54.3344C39.2847 55.5541 37.889 56.3882 36.3393 56.6945C34.7895 57.0008 33.1815 56.7604 31.7891 56.0143C30.3967 55.2682 29.306 54.0624 28.7027 52.6025C28.0994 51.1425 28.0208 49.5185 28.4804 48.0071C28.9399 46.4957 29.9092 45.1904 31.2231 44.3134C32.537 43.4363 34.1143 43.0419 35.6864 43.1972C37.2584 43.3524 38.7281 44.0479 39.845 45.165C40.4835 45.7982 40.9893 46.5524 41.3327 47.3834C41.6761 48.2145 41.8503 49.1058 41.845 50.005Z" fill="#262624"/>
<path d="M54.835 32.165C55.2293 32.1633 55.6143 32.0451 55.9417 31.8252C56.2691 31.6054 56.5241 31.2936 56.6748 30.9292C56.8255 30.5648 56.8651 30.1639 56.7886 29.7771C56.7121 29.3902 56.523 29.0346 56.245 28.755C50.6055 23.1259 42.963 19.9645 34.995 19.9645C27.0269 19.9645 19.3844 23.1259 13.745 28.755C13.3697 29.1302 13.1588 29.6392 13.1588 30.17C13.1588 30.7007 13.3697 31.2097 13.745 31.585C14.1202 31.9602 14.6292 32.1711 15.16 32.1711C15.6907 32.1711 16.1997 31.9602 16.575 31.585C21.4629 26.7046 28.0878 23.9635 34.995 23.9635C41.9022 23.9635 48.5271 26.7046 53.415 31.585C53.6018 31.7703 53.8235 31.917 54.0671 32.0165C54.3108 32.116 54.5717 32.1665 54.835 32.165Z" fill="#262624"/>
<path d="M67.795 17.745C68.1893 17.7433 68.5744 17.6251 68.9017 17.4052C69.2291 17.1854 69.4842 16.8736 69.6348 16.5092C69.7855 16.1448 69.8251 15.744 69.7486 15.3571C69.6721 14.9702 69.483 14.6146 69.205 14.335C60.1358 5.26612 47.8355 0.171326 35.01 0.171326C22.1845 0.171326 9.8842 5.26612 0.814995 14.335C0.439713 14.7102 0.228882 15.2192 0.228882 15.75C0.228882 16.2807 0.439713 16.7897 0.814995 17.165C1.19028 17.5402 1.69927 17.7511 2.22999 17.7511C2.76072 17.7511 3.26971 17.5402 3.64499 17.165C11.9656 8.84661 23.2495 4.17361 35.015 4.17361C46.7805 4.17361 58.0644 8.84661 66.385 17.165C66.76 17.5369 67.2669 17.7454 67.795 17.745Z" fill="#262624"/>
</g>
<defs>
<clipPath id="clip0_1788_107276">
<rect width="69.57" height="60.67" fill="white" transform="translate(0.214966 0.164978)"/>
</clipPath>
</defs>
</svg>
